<?xml version="1.0" standalone="no"?>
<!DOCTYPE svg PUBLIC "-//W3C//DTD SVG 20010904//EN"
 "http://www.w3.org/TR/2001/REC-SVG-20010904/DTD/svg10.dtd">
<svg version="1.0" xmlns="http://www.w3.org/2000/svg"
 width="22.000000pt" height="20.000000pt" viewBox="0 0 22.000000 20.000000"
 preserveAspectRatio="xMidYMid meet">

<g transform="translate(0.000000,20.000000) scale(0.100000,-0.100000)"
fill="#000000" stroke="none">
<path d="M4 186 c-3 -7 -4 -42 -2 -77 l3 -64 38 -3 c32 -3 37 -6 32 -23 -6
-17 -1 -19 34 -19 42 0 50 7 29 28 -9 9 -3 12 29 12 47 0 53 9 53 80 0 81 1
80 -111 80 -75 0 -101 -3 -105 -14z m196 -56 l0 -50 -90 0 -90 0 0 50 0 50 90
0 90 0 0 -50z"/>
</g>
</svg>
